<svg width="20" height="20" viewBox="0 0 20 20" fill="none" xmlns="http://www.w3.org/2000/svg">
<mask id="path-1-inside-1_10_57" fill="white">
<path fill-rule="evenodd" clip-rule="evenodd" d="M0.585786 0.585786C0 1.17157 0 2.11438 0 4V16C0 17.8856 0 18.8284 0.585786 19.4142C1.17157 20 2.11438 20 4 20H16C17.8856 20 18.8284 20 19.4142 19.4142C20 18.8284 20 17.8856 20 16V4C20 2.11438 20 1.17157 19.4142 0.585786C18.8284 0 17.8856 0 16 0H4C2.11438 0 1.17157 0 0.585786 0.585786ZM14 5C14.5523 5 15 5.44772 15 6V14C15 14.5523 14.5523 15 14 15C13.4477 15 13 14.5523 13 14V6C13 5.44772 13.4477 5 14 5ZM7 9C7 8.44771 6.55228 8 6 8C5.44772 8 5 8.44771 5 9V14C5 14.5523 5.44772 15 6 15C6.55229 15 7 14.5523 7 14V9ZM11 10C11 9.44771 10.5523 9 10 9C9.44771 9 9 9.44771 9 10V14C9 14.5523 9.44771 15 10 15C10.5523 15 11 14.5523 11 14V10Z"/>
</mask>
<path fill-rule="evenodd" clip-rule="evenodd" d="M0.585786 0.585786C0 1.17157 0 2.11438 0 4V16C0 17.8856 0 18.8284 0.585786 19.4142C1.17157 20 2.11438 20 4 20H16C17.8856 20 18.8284 20 19.4142 19.4142C20 18.8284 20 17.8856 20 16V4C20 2.11438 20 1.17157 19.4142 0.585786C18.8284 0 17.8856 0 16 0H4C2.11438 0 1.17157 0 0.585786 0.585786ZM14 5C14.5523 5 15 5.44772 15 6V14C15 14.5523 14.5523 15 14 15C13.4477 15 13 14.5523 13 14V6C13 5.44772 13.4477 5 14 5ZM7 9C7 8.44771 6.55228 8 6 8C5.44772 8 5 8.44771 5 9V14C5 14.5523 5.44772 15 6 15C6.55229 15 7 14.5523 7 14V9ZM11 10C11 9.44771 10.5523 9 10 9C9.44771 9 9 9.44771 9 10V14C9 14.5523 9.44771 15 10 15C10.5523 15 11 14.5523 11 14V10Z" fill="#B2BAC9"/>
<path d="M5 14H3V14L5 14ZM7 14H5V14L7 14ZM2 4C2 3.00065 2.00425 2.45234 2.05539 2.07195C2.09879 1.7491 2.14064 1.85936 2 2L-0.828427 -0.828427C-1.55486 -0.101996 -1.8059 0.772556 -1.90894 1.53896C-2.00425 2.24783 -2 3.11373 -2 4H2ZM2 16V4H-2V16H2ZM2 18C2.14064 18.1406 2.09879 18.2509 2.05539 17.928C2.00425 17.5477 2 16.9993 2 16H-2C-2 16.8863 -2.00425 17.7522 -1.90894 18.461C-1.8059 19.2274 -1.55486 20.102 -0.828428 20.8284L2 18ZM4 18C3.00065 18 2.45234 17.9958 2.07195 17.9446C1.7491 17.9012 1.85936 17.8594 2 18L-0.828428 20.8284C-0.101996 21.5549 0.772556 21.8059 1.53896 21.9089C2.24783 22.0042 3.11373 22 4 22V18ZM16 18H4V22H16V18ZM18 18C18.1406 17.8594 18.2509 17.9012 17.928 17.9446C17.5477 17.9958 16.9993 18 16 18V22C16.8863 22 17.7522 22.0042 18.461 21.9089C19.2274 21.8059 20.102 21.5549 20.8284 20.8284L18 18ZM18 16C18 16.9993 17.9958 17.5477 17.9446 17.928C17.9012 18.2509 17.8594 18.1406 18 18L20.8284 20.8284C21.5549 20.102 21.8059 19.2274 21.9089 18.461C22.0042 17.7522 22 16.8863 22 16H18ZM18 4V16H22V4H18ZM18 2C17.8594 1.85936 17.9012 1.7491 17.9446 2.07195C17.9958 2.45234 18 3.00065 18 4H22C22 3.11373 22.0042 2.24783 21.9089 1.53896C21.8059 0.772556 21.5549 -0.101996 20.8284 -0.828428L18 2ZM16 2C16.9993 2 17.5477 2.00425 17.928 2.05539C18.2509 2.09879 18.1406 2.14064 18 2L20.8284 -0.828428C20.102 -1.55486 19.2274 -1.8059 18.461 -1.90894C17.7522 -2.00425 16.8863 -2 16 -2V2ZM4 2H16V-2H4V2ZM2 2C1.85936 2.14064 1.7491 2.09879 2.07195 2.05539C2.45234 2.00425 3.00065 2 4 2V-2C3.11373 -2 2.24783 -2.00425 1.53896 -1.90894C0.772556 -1.8059 -0.101996 -1.55486 -0.828427 -0.828427L2 2ZM17 6C17 4.34315 15.6569 3 14 3V7C13.4477 7 13 6.55228 13 6H17ZM17 14V6H13V14H17ZM14 17C15.6569 17 17 15.6569 17 14H13C13 13.4477 13.4477 13 14 13V17ZM11 14C11 15.6569 12.3431 17 14 17V13C14.5523 13 15 13.4477 15 14H11ZM11 6V14H15V6H11ZM14 3C12.3431 3 11 4.34315 11 6H15C15 6.55228 14.5523 7 14 7V3ZM6 10C5.44772 10 5 9.55229 5 9H9C9 7.34314 7.65685 6 6 6V10ZM7 9C7 9.55229 6.55228 10 6 10V6C4.34315 6 3 7.34314 3 9H7ZM7 14V9H3V14H7ZM6 13C6.55229 13 7 13.4477 7 14L3 14C3 15.6569 4.34315 17 6 17V13ZM5 14C5 13.4477 5.44772 13 6 13V17C7.65686 17 9 15.6569 9 14L5 14ZM5 9V14H9V9H5ZM10 11C9.44772 11 9 10.5523 9 10H13C13 8.34315 11.6569 7 10 7V11ZM11 10C11 10.5523 10.5523 11 10 11V7C8.34315 7 7 8.34315 7 10H11ZM11 14V10H7V14H11ZM10 13C10.5523 13 11 13.4477 11 14H7C7 15.6569 8.34314 17 10 17V13ZM9 14C9 13.4477 9.44771 13 10 13V17C11.6569 17 13 15.6569 13 14H9ZM9 10V14H13V10H9Z" fill="#B2BAC9" mask="url(#path-1-inside-1_10_57)"/>
</svg>
