<svg width="20" height="22" viewBox="0 0 20 22" fill="none" xmlns="http://www.w3.org/2000/svg">
<path d="M0.5 10.7039C0.5 8.79553 0.511429 8.00182 0.84297 7.31012C1.17593 6.61546 1.80143 6.0867 3.31083 4.84522L4.7394 3.67023C6.08014 2.56749 7.05083 1.77026 7.88223 1.24334C8.7015 0.724126 9.33694 0.5 10 0.5C10.6631 0.5 11.2985 0.724126 12.1178 1.24334C12.9492 1.77026 13.9199 2.56749 15.2606 3.67023L16.6892 4.84522C18.1986 6.0867 18.8241 6.61546 19.157 7.31012C19.4886 8.00182 19.5 8.79553 19.5 10.7039V16.5167C19.5 17.8238 19.4988 18.7518 19.4002 19.4557C19.3039 20.1429 19.1234 20.5422 18.817 20.8362C18.5076 21.1331 18.0831 21.31 17.3568 21.4037C16.6182 21.499 15.6462 21.5 14.2857 21.5H5.71429C4.35384 21.5 3.38179 21.499 2.6432 21.4037C1.91694 21.31 1.49238 21.1331 1.18302 20.8362C0.876565 20.5422 0.696063 20.1429 0.599768 19.4557C0.501151 18.7518 0.5 17.8238 0.5 16.5167V10.7039Z" stroke="#B2BAC9"/>
<path d="M13 21V14C13 12.8954 12.1046 12 11 12H9C7.89543 12 7 12.8954 7 14V21" stroke="#B2BAC9" stroke-linecap="square" stroke-linejoin="round"/>
</svg>
